<svg width="448" height="512" xmlns="http://www.w3.org/2000/svg" xmlns:xlink="http://www.w3.org/1999/xlink" xml:space="preserve" overflow="hidden"><g transform="translate(-416 -104)"><path d="M480 184C471.2 184 464 191.2 464 200L464 520C464 528.8 471.2 536 480 536L800 536C808.8 536 816 528.8 816 520L816 200C816 191.2 808.8 184 800 184L480 184ZM416 200C416 164.7 444.7 136 480 136L800 136C835.3 136 864 164.7 864 200L864 520C864 555.3 835.3 584 800 584L480 584C444.7 584 416 555.3 416 520L416 200ZM616 448 616 384 552 384C538.7 384 528 373.3 528 360 528 346.7 538.7 336 552 336L616 336 616 272C616 258.7 626.7 248 640 248 653.3 248 664 258.7 664 272L664 336 728 336C741.3 336 752 346.7 752 360 752 373.3 741.3 384 728 384L664 384 664 448C664 461.3 653.3 472 640 472 626.7 472 616 461.3 616 448Z" fill="#61CBF4"/></g></svg>